<?xml version="1.0" standalone="no"?>
<!DOCTYPE svg PUBLIC "-//W3C//DTD SVG 20010904//EN"
 "http://www.w3.org/TR/2001/REC-SVG-20010904/DTD/svg10.dtd">
<svg version="1.0" xmlns="http://www.w3.org/2000/svg"
 width="600.000000pt" height="600.000000pt" viewBox="0 0 600.000000 600.000000"
 preserveAspectRatio="xMidYMid meet">
<g transform="translate(0.000000,600.000000) scale(0.100000,-0.100000)"
fill="#000000" stroke="none">
<path d="M2843 4405 c-198 -54 -366 -224 -418 -425 -13 -51 -21 -53 -95 -24
-72 27 -202 30 -289 6 -94 -27 -153 -62 -223 -134 -197 -200 -197 -502 -1
-707 34 -36 61 -66 60 -66 -1 -1 -32 -16 -69 -33 -167 -77 -295 -206 -390
-397 -84 -165 -111 -309 -112 -575 -1 -189 0 -196 23 -234 15 -24 40 -45 65
-57 39 -18 101 -19 1576 -19 1476 0 1537 1 1576 19 23 10 52 34 65 52 24 34
24 37 24 264 0 185 -4 247 -18 315 -61 283 -228 513 -457 626 l-79 40 58 57
c100 98 151 221 151 362 0 144 -51 265 -154 363 -98 94 -214 142 -344 142 -65
0 -179 -24 -196 -41 -20 -19 -32 -8 -43 41 -47 197 -221 373 -419 424 -76 20
-220 20 -291 1z m282 -132 c161 -50 291 -205 314 -375 36 -258 -129 -488 -378
-529 -289 -48 -550 196 -528 492 23 300 310 499 592 412z m-825 -439 c76 -24
102 -52 117 -125 21 -107 85 -223 169 -305 l73 -72 -42 -17 c-70 -27 -169 -90
-234 -148 -72 -64 -133 -83 -243 -74 -84 6 -148 35 -211 94 -97 91 -135 182
-127 312 8 136 83 253 201 311 104 51 191 58 297 24z m1556 15 c156 -28 282
-160 304 -316 31 -226 -126 -425 -346 -441 -91 -6 -177 18 -219 60 -51 53
-132 109 -209 147 l-75 36 56 45 c99 79 172 208 195 347 11 63 11 63 62 88 46
23 111 41 157 44 8 1 42 -4 75 -10z m-633 -624 c274 -71 496 -347 571 -711 34
-160 49 -592 24 -627 -12 -16 -72 -17 -843 -15 l-830 3 0 270 c0 222 3 285 18
355 49 230 144 416 279 548 99 97 191 151 303 178 75 18 406 18 478 -1z
m-1026 -269 c2 -2 -16 -44 -41 -93 -110 -217 -137 -354 -143 -720 l-5 -273
-277 0 c-202 0 -280 3 -289 12 -27 27 -11 374 24 513 65 261 262 488 474 545
91 25 239 34 257 16z m1747 -1 c204 -36 366 -167 472 -380 75 -152 88 -223 88
-480 l1 -220 -276 -3 -277 -2 -5 282 c-4 235 -8 299 -25 376 -29 130 -65 235
-118 337 -50 97 -48 105 17 105 20 0 75 -7 123 -15z"/>
</g>
</svg>
