<?xml version="1.0" standalone="no"?>
<!DOCTYPE svg PUBLIC "-//W3C//DTD SVG 20010904//EN"
 "http://www.w3.org/TR/2001/REC-SVG-20010904/DTD/svg10.dtd">
<svg version="1.0" xmlns="http://www.w3.org/2000/svg"
 width="600.000000pt" height="600.000000pt" viewBox="0 0 600.000000 600.000000"
 preserveAspectRatio="xMidYMid meet">
<g transform="translate(0.000000,600.000000) scale(0.100000,-0.100000)"
fill="#000000" stroke="none">
<path d="M2870 4841 c-103 -33 -196 -108 -313 -252 -33 -41 -44 -48 -98 -59
-144 -31 -256 -111 -356 -252 l-54 -77 -92 5 c-103 6 -143 -7 -181 -59 -48
-66 -5 -276 97 -473 l43 -83 -54 -78 c-259 -375 -377 -1007 -286 -1538 l16
-94 -46 -64 c-60 -84 -86 -142 -86 -195 0 -86 46 -146 127 -167 39 -10 67 -10
154 2 l105 15 210 -35 c718 -123 1168 -122 1899 3 226 39 231 39 300 25 154
-33 237 -11 283 75 41 78 17 176 -73 295 -29 38 -36 54 -32 79 2 17 13 81 23
141 25 156 26 516 1 675 -52 334 -154 595 -314 803 l-45 58 32 72 c99 221 135
411 90 485 -29 47 -75 63 -171 61 -44 -1 -81 0 -83 2 -1 2 -27 39 -56 82 -110
161 -280 279 -444 309 -66 12 -72 15 -137 80 -159 159 -304 209 -459 159z
m182 -115 c61 -18 108 -52 204 -145 44 -44 91 -82 105 -84 13 -3 51 -10 84
-16 101 -18 200 -74 285 -160 42 -42 90 -102 108 -133 18 -32 47 -68 65 -82
l31 -25 -60 -26 c-486 -218 -1259 -224 -1724 -13 l-65 29 36 32 c20 18 49 55
65 82 15 28 54 76 85 108 78 78 130 101 296 133 13 2 52 42 97 98 146 183 258
242 388 202z m-1102 -653 c0 -45 39 -82 132 -127 386 -184 948 -230 1457 -120
290 62 521 172 521 246 0 15 6 19 28 16 26 -3 27 -5 26 -54 -2 -65 -26 -163
-66 -261 -45 -112 -89 -177 -140 -206 -193 -112 -706 -185 -1098 -157 -368 26
-668 102 -751 192 -90 98 -209 411 -178 470 13 25 69 25 69 1z m2125 -642
c114 -157 210 -399 249 -631 50 -300 48 -527 -5 -827 l-22 -122 39 -47 c91
-108 117 -168 89 -210 -19 -29 -50 -31 -159 -8 -84 17 -67 19 -391 -40 -535
-98 -942 -114 -1410 -56 -145 18 -224 31 -527 86 -87 16 -107 16 -180 4 -151
-25 -184 -14 -175 53 5 38 43 100 109 179 l30 37 -21 114 c-88 466 -4 1027
212 1409 20 34 46 75 59 91 l23 27 90 -45 c63 -32 132 -56 230 -80 221 -54
324 -66 606 -72 272 -6 449 7 644 46 50 10 91 17 93 16 2 -2 -6 -35 -18 -74
-41 -138 -37 -300 11 -393 22 -44 51 -62 85 -54 44 11 50 45 20 119 -19 48
-26 83 -26 134 0 74 21 177 45 224 l16 30 28 -20 c44 -32 118 -148 148 -231
36 -102 44 -274 18 -397 -22 -104 -14 -133 38 -133 48 0 63 23 82 125 20 107
16 287 -9 380 -25 94 -89 213 -155 290 l-59 70 55 26 c30 15 60 32 66 38 14
14 27 3 72 -58z"/>
<path d="M2952 4578 c-18 -18 -15 -35 10 -52 30 -22 55 -20 68 4 20 37 -47 79
-78 48z"/>
<path d="M3217 4383 c-14 -13 -6 -42 15 -57 30 -22 55 -20 68 4 8 15 6 24 -10
40 -19 19 -60 27 -73 13z"/>
<path d="M2730 4335 c-19 -20 -22 -30 -14 -43 26 -40 89 -10 82 40 -4 33 -38
34 -68 3z"/>
<path d="M3520 4235 c-16 -19 -6 -43 24 -56 32 -15 56 -5 56 22 0 40 -55 64
-80 34z"/>
<path d="M2471 4211 c-45 -35 -6 -88 42 -56 30 19 36 59 11 69 -22 9 -26 8
-53 -13z"/>
<path d="M3037 4203 c-12 -11 -8 -58 6 -78 20 -26 67 -13 67 18 0 45 -49 85
-73 60z"/>
<path d="M2742 4098 c-18 -18 -14 -46 9 -58 25 -14 65 -6 72 14 13 33 -55 70
-81 44z"/>
</g>
</svg>
