<?xml version="1.0" standalone="no"?>
<!DOCTYPE svg PUBLIC "-//W3C//DTD SVG 20010904//EN"
 "http://www.w3.org/TR/2001/REC-SVG-20010904/DTD/svg10.dtd">
<svg version="1.0" xmlns="http://www.w3.org/2000/svg"
 width="600.000000pt" height="600.000000pt" viewBox="0 0 600.000000 600.000000"
 preserveAspectRatio="xMidYMid meet">
<g transform="translate(0.000000,600.000000) scale(0.100000,-0.100000)"
fill="#000000" stroke="none">
<path d="M4203 4910 c-21 -10 -83 -39 -138 -64 -240 -113 -413 -173 -857 -295
-459 -127 -638 -200 -870 -353 -298 -198 -553 -528 -651 -844 -97 -310 -67
-645 84 -946 82 -164 220 -337 347 -437 45 -36 82 -70 82 -77 0 -6 -13 -38
-29 -70 -87 -176 -211 -504 -211 -558 0 -58 64 -86 109 -48 12 10 37 66 62
137 41 121 174 443 189 458 4 5 41 -7 81 -27 211 -101 409 -141 654 -133 749
25 1256 535 1406 1417 16 96 22 184 26 380 6 279 -2 408 -43 670 -29 189 -141
756 -155 781 -13 25 -43 28 -86 9z m31 -407 c90 -464 116 -684 116 -975 0
-579 -151 -1041 -446 -1367 -106 -118 -315 -248 -489 -305 -255 -83 -543 -87
-785 -11 -104 33 -240 94 -240 108 0 11 46 97 157 293 l74 131 137 6 c209 9
504 69 655 132 80 33 69 135 -15 135 -13 0 -63 -14 -113 -30 -171 -59 -575
-124 -575 -93 0 5 87 139 193 298 218 328 179 294 362 314 177 18 416 90 449
134 24 32 15 70 -20 94 -25 16 -30 15 -139 -21 -111 -36 -277 -76 -323 -76
-20 0 -22 2 -11 23 29 54 404 532 526 670 38 43 43 87 13 117 -36 36 -73 26
-124 -32 -299 -331 -819 -1064 -1124 -1583 -82 -140 -219 -390 -227 -415 -4
-11 -10 -20 -15 -20 -16 0 -134 106 -191 171 -184 209 -293 471 -306 730 -7
143 7 251 52 386 72 217 180 388 360 569 255 256 505 380 1084 535 376 100
596 176 811 277 47 22 90 41 96 41 7 1 29 -91 58 -236z"/>
<path d="M2905 3815 c-28 -28 -30 -49 -15 -193 11 -103 44 -274 58 -299 7 -12
19 3 55 68 l45 84 -13 90 c-8 50 -14 121 -14 158 -1 58 -4 71 -26 92 -31 32
-59 32 -90 0z"/>
<path d="M2339 3239 c-20 -20 -21 -29 -16 -118 6 -107 36 -265 74 -386 31 -98
82 -225 92 -225 10 0 71 127 71 148 0 9 -12 52 -25 96 -37 115 -62 236 -75
361 -9 90 -15 113 -32 128 -27 23 -63 22 -89 -4z"/>
</g>
</svg>
