<?xml version="1.0" standalone="no"?>
<!DOCTYPE svg PUBLIC "-//W3C//DTD SVG 20010904//EN"
 "http://www.w3.org/TR/2001/REC-SVG-20010904/DTD/svg10.dtd">
<svg version="1.0" xmlns="http://www.w3.org/2000/svg"
 width="600.000000pt" height="600.000000pt" viewBox="0 0 600.000000 600.000000"
 preserveAspectRatio="xMidYMid meet">
<g transform="translate(0.000000,600.000000) scale(0.100000,-0.100000)"
fill="#000000" stroke="none">
<path d="M2188 4456 c-83 -19 -174 -55 -253 -100 -95 -56 -240 -200 -295 -295
-142 -246 -178 -575 -94 -871 34 -117 120 -288 200 -393 169 -223 492 -520
1043 -957 153 -121 191 -145 226 -136 23 6 306 226 525 409 321 268 582 521
704 684 187 248 271 546 237 844 -28 243 -107 423 -250 573 -103 107 -200 169
-343 218 -89 31 -100 32 -248 33 -118 0 -171 -4 -220 -18 -125 -34 -279 -119
-389 -216 l-34 -29 -64 53 c-118 101 -257 169 -405 200 -83 18 -260 18 -340 1z
m387 -180 c110 -35 192 -86 296 -183 118 -110 132 -111 234 -15 87 83 143 122
238 167 215 102 464 83 669 -52 261 -171 377 -561 282 -943 -19 -76 -88 -228
-135 -297 -87 -129 -297 -349 -504 -530 -189 -165 -625 -520 -652 -530 -15 -6
-76 39 -320 238 -381 312 -679 591 -799 749 -80 105 -166 277 -194 390 -53
214 -31 462 56 646 91 193 247 322 452 374 109 28 266 22 377 -14z"/>
<path d="M3645 3721 c-11 -5 -76 -67 -145 -137 -473 -489 -591 -604 -608 -595
-9 6 -96 89 -192 186 -96 98 -185 181 -197 186 -47 18 -103 -23 -103 -77 0
-31 19 -53 230 -261 127 -126 239 -232 250 -237 10 -5 29 -6 42 -3 32 8 816
800 830 839 23 60 -47 124 -107 99z"/>
</g>
</svg>
