<?xml version="1.0" standalone="no"?>
<!DOCTYPE svg PUBLIC "-//W3C//DTD SVG 20010904//EN"
 "http://www.w3.org/TR/2001/REC-SVG-20010904/DTD/svg10.dtd">
<svg version="1.0" xmlns="http://www.w3.org/2000/svg"
 width="600.000000pt" height="232.000000pt" viewBox="0 0 600.000000 232.000000"
 preserveAspectRatio="xMidYMid meet">
<g transform="translate(0.000000,232.000000) scale(0.100000,-0.100000)"
fill="#000000" stroke="none">
<path d="M788 2006 c-40 -62 -36 -114 5 -68 13 15 36 113 26 112 -2 -1 -16
-20 -31 -44z"/>
<path d="M722 1993 c-6 -16 -14 -38 -17 -51 -4 -13 -11 -19 -17 -16 -8 5 -9 1
-3 -12 13 -32 16 -68 6 -84 -16 -23 -24 -4 -29 62 l-5 61 -13 -32 c-16 -38
-12 -102 10 -153 18 -42 20 -66 6 -88 -14 -22 -40 47 -41 107 0 36 -3 43 -9
28 -16 -37 -11 -128 9 -166 20 -36 24 -57 22 -96 -3 -64 -51 21 -51 90 0 25
-4 49 -10 52 -6 4 -10 -11 -10 -37 l-1 -43 -15 30 -14 30 5 -48 c4 -44 12 -65
60 -155 13 -26 15 -41 8 -65 l-9 -31 -22 35 c-12 20 -27 60 -32 89 -14 75 -20
74 -20 -4 0 -73 16 -118 55 -151 23 -19 23 -22 13 -105 -5 -47 -7 -132 -3
-190 6 -107 39 -298 55 -314 17 -17 20 33 6 95 -28 119 -38 240 -31 366 l7
122 42 25 c45 26 88 94 100 154 7 41 -7 34 -33 -16 -11 -20 -33 -50 -50 -66
-29 -28 -31 -28 -31 -9 0 12 -3 28 -6 36 -6 16 -2 20 68 73 52 38 72 69 82
124 l6 35 -15 -30 c-11 -24 -14 -26 -15 -10 -1 15 -5 12 -20 -15 -10 -19 -32
-48 -49 -64 l-31 -30 0 45 c0 42 2 45 48 71 57 32 76 52 97 101 22 52 18 69
-6 25 -11 -21 -22 -38 -25 -38 -2 0 0 9 6 21 20 36 5 44 -17 8 -12 -19 -35
-47 -52 -63 l-31 -30 0 30 c0 16 3 38 6 49 5 21 55 55 79 55 18 0 75 67 75 88
0 12 -9 7 -30 -18 l-30 -35 16 40 c9 22 25 50 35 64 29 36 23 46 -12 17 -17
-14 -35 -26 -40 -26 -5 0 -9 -5 -9 -11 0 -5 5 -7 10 -4 22 14 8 -15 -29 -56
-37 -42 -39 -43 -45 -21 -5 15 -2 32 8 47 18 28 23 81 5 55 -8 -11 -9 -2 -4
33 7 53 2 60 -13 20z"/>
<path d="M1109 1818 c-13 -18 -30 -46 -36 -63 l-13 -30 3 37 c2 25 0 35 -7 28
-5 -5 -8 -24 -7 -42 4 -69 2 -81 -14 -97 -15 -15 -16 -11 -12 54 l4 70 -20
-45 c-14 -32 -20 -64 -19 -110 2 -79 -11 -109 -28 -65 -8 21 -8 41 -1 72 15
60 13 64 -11 18 -16 -31 -20 -56 -20 -121 0 -52 -4 -89 -12 -100 -12 -15 -14
-13 -20 20 -4 20 -4 58 -1 84 l6 47 -17 -35 c-9 -19 -17 -54 -18 -77 0 -22 -4
-39 -7 -37 -3 2 -1 -14 4 -35 8 -29 7 -47 -2 -70 -21 -50 -34 -25 -29 58 l5
76 -18 -40 c-22 -48 -24 -124 -5 -150 12 -17 11 -25 -10 -67 -60 -119 -124
-321 -124 -388 1 -23 2 -23 20 10 11 19 19 43 20 52 0 30 60 207 95 285 32 68
36 73 65 73 57 0 137 55 167 115 l15 30 -27 -30 c-24 -27 -25 -28 -14 -5 l12
25 -24 -21 c-31 -28 -91 -64 -106 -64 -16 0 -16 21 -1 55 9 20 18 25 46 25 48
0 117 35 147 74 33 43 32 55 -2 25 -16 -13 -22 -17 -15 -9 24 28 11 31 -20 4
-31 -25 -97 -59 -103 -52 -2 2 2 18 9 37 8 25 17 35 37 37 68 7 109 26 143 66
43 49 47 71 9 37 -16 -13 -22 -17 -15 -9 24 28 12 31 -19 6 -39 -33 -89 -59
-97 -52 -3 4 -1 19 4 34 8 23 18 29 68 39 39 7 67 20 87 39 39 37 37 51 -3 23
-33 -24 -31 -16 7 36 12 17 25 37 30 45 6 12 5 13 -6 3 -7 -7 -22 -13 -34 -13
-14 0 -16 -3 -7 -8 13 -9 -19 -44 -70 -77 -28 -17 -28 -17 -28 7 0 27 19 48
63 69 26 12 38 29 69 91 14 30 9 30 -32 -3 -22 -18 -43 -43 -46 -55 -8 -31
-32 -20 -26 12 2 13 8 24 12 24 8 0 33 51 27 56 -2 2 -14 -11 -28 -28z"/>
<path d="M1564 1701 c-13 -13 -1 -31 20 -31 55 0 56 -7 56 -310 0 -303 -1
-310 -56 -310 -15 0 -24 -6 -24 -15 0 -13 22 -15 135 -15 113 0 135 2 135 15
0 10 -10 15 -28 15 -52 0 -62 24 -62 146 l0 109 79 2 c177 3 284 108 252 247
-14 62 -41 99 -88 122 -32 16 -69 20 -226 24 -104 3 -191 3 -193 1z m337 -57
c45 -23 73 -92 66 -161 -10 -97 -50 -133 -157 -141 l-70 -5 0 161 c0 158 0
161 23 165 35 8 105 -1 138 -19z"/>
<path d="M5244 1645 c-21 -33 -6 -72 31 -81 50 -13 86 53 49 90 -24 24 -61 20
-80 -9z"/>
<path d="M3745 1551 c-21 -48 -43 -70 -81 -80 -42 -11 -42 -31 -1 -31 l35 0 4
-185 3 -185 27 -26 c50 -50 177 -39 212 18 15 25 3 30 -30 13 -39 -20 -67 -19
-95 4 -24 19 -24 23 -24 188 l0 168 68 3 c59 3 67 5 67 22 0 18 -7 20 -71 20
l-70 0 2 52 c4 68 -19 78 -46 19z"/>
<path d="M4086 1541 c-20 -38 -34 -52 -66 -65 -49 -19 -52 -36 -6 -36 l35 0 3
-190 c3 -180 4 -191 25 -211 31 -32 116 -37 163 -11 37 21 58 62 24 47 -11 -5
-35 -10 -55 -13 -62 -7 -69 13 -69 210 l0 168 65 0 c58 0 65 2 65 20 0 18 -7
20 -65 20 l-65 0 0 55 c0 71 -20 73 -54 6z"/>
<path d="M2235 1475 c-45 -16 -95 -66 -95 -94 0 -25 26 -51 50 -51 25 0 53 43
45 68 -9 29 20 52 66 52 50 0 76 -25 84 -83 11 -74 8 -78 -78 -98 -94 -22
-126 -39 -161 -79 -18 -22 -26 -43 -26 -71 0 -101 131 -144 233 -75 l35 24 10
-24 c15 -31 70 -41 120 -22 48 18 49 42 2 42 l-35 1 -5 167 c-5 148 -7 170
-26 195 -43 59 -132 79 -219 48z m155 -293 c0 -58 -3 -72 -22 -90 -48 -44
-118 -41 -143 8 -19 36 -12 70 20 100 25 24 87 49 123 50 21 0 22 -4 22 -68z"/>
<path d="M2668 1472 c-40 -10 -68 -22 -68 -29 0 -7 8 -13 19 -13 40 0 46 -25
46 -190 0 -169 -6 -190 -51 -190 -15 0 -24 -6 -24 -15 0 -12 20 -15 120 -15
100 0 120 3 120 15 0 9 -9 15 -24 15 -46 0 -56 32 -56 168 0 97 4 130 16 152
22 36 64 60 107 60 85 0 97 -26 97 -207 0 -76 -4 -144 -9 -151 -4 -7 -21 -16
-36 -20 -16 -5 -30 -13 -33 -20 -3 -9 29 -12 123 -12 97 0 126 3 123 13 -3 6
-16 13 -31 15 -14 2 -30 9 -35 15 -6 7 -12 84 -14 172 -3 131 -7 166 -21 193
-20 37 -68 62 -119 62 -40 0 -106 -30 -132 -59 -28 -31 -36 -26 -36 19 0 22
-3 39 -7 39 -5 -1 -38 -9 -75 -17z"/>
<path d="M3293 1465 c-103 -52 -149 -180 -111 -309 37 -123 200 -183 327 -120
54 27 88 65 76 84 -4 7 -18 2 -40 -14 -18 -14 -53 -31 -78 -38 -105 -28 -207
62 -207 185 l0 27 160 0 c182 0 180 -1 160 79 -28 116 -164 167 -287 106z
m159 -26 c21 -11 48 -66 48 -99 0 -19 -6 -20 -115 -20 -124 0 -126 1 -105 55
18 47 58 75 107 75 24 0 53 -5 65 -11z"/>
<path d="M4465 1478 c-91 -32 -145 -119 -145 -232 0 -47 7 -85 19 -111 61
-135 248 -168 364 -64 33 29 39 40 30 50 -9 9 -18 6 -43 -14 -115 -97 -280
-19 -280 131 l0 42 160 0 160 0 0 38 c0 61 -38 123 -90 150 -48 24 -122 28
-175 10z m126 -38 c24 -13 49 -61 49 -95 l0 -25 -114 0 -115 0 9 29 c12 43 28
68 52 85 26 18 90 21 119 6z"/>
<path d="M4853 1471 c-77 -21 -85 -28 -45 -42 19 -6 34 -20 37 -32 3 -12 4
-92 3 -177 l-3 -155 -35 -11 c-19 -6 -36 -16 -38 -23 -3 -8 33 -11 122 -11
105 0 126 2 126 15 0 9 -9 15 -24 15 -50 0 -56 19 -56 172 l0 140 34 34 c41
41 58 42 80 9 30 -45 86 -28 86 27 0 68 -91 74 -161 11 l-39 -35 0 41 c0 46 3
46 -87 22z"/>
<path d="M5248 1472 c-43 -9 -68 -20 -68 -29 0 -7 8 -13 18 -13 38 0 42 -18
42 -191 0 -177 -2 -184 -49 -191 -14 -1 -26 -9 -29 -15 -3 -10 25 -13 117 -13
101 0 121 2 121 15 0 9 -9 15 -25 15 -14 0 -29 8 -35 19 -6 12 -10 101 -10
220 0 111 -3 200 -7 200 -5 -1 -38 -8 -75 -17z"/>
<path d="M5550 1474 c-53 -23 -80 -53 -80 -90 0 -39 21 -58 55 -50 25 6 43 45
30 66 -20 32 59 63 110 44 25 -10 45 -59 45 -111 l0 -48 -67 -13 c-120 -23
-203 -83 -203 -149 0 -108 145 -149 251 -72 12 9 21 7 42 -15 33 -33 92 -36
131 -5 31 24 27 38 -9 31 -50 -9 -55 7 -55 170 0 177 -9 207 -69 237 -48 25
-130 27 -181 5z m160 -291 c0 -74 -3 -81 -40 -106 -59 -41 -130 -8 -130 59 0
56 69 109 148 113 21 1 22 -3 22 -66z"/>
<path d="M214 1433 c56 -54 107 -126 156 -218 l43 -80 -64 64 c-93 93 -181
128 -266 105 -27 -8 -30 -24 -5 -24 47 0 125 -54 205 -143 45 -50 128 -139
185 -198 81 -84 110 -123 137 -181 18 -40 34 -65 34 -56 1 30 -138 419 -184
514 -53 111 -129 197 -200 231 -73 33 -85 29 -41 -14z m214 -221 c27 -51 40
-87 35 -98 -4 -12 -3 -15 5 -10 8 5 10 1 5 -10 -4 -12 -3 -15 5 -10 8 5 10 1
5 -10 -5 -13 -20 11 -53 82 -26 54 -68 131 -93 169 l-47 70 48 -51 c27 -29 67
-88 90 -132z m-206 52 c50 -26 135 -111 213 -214 142 -188 108 -162 -106 80
-42 47 -95 100 -118 118 -46 34 -40 42 11 16z"/>
<path d="M1069 1146 c-133 -36 -278 -185 -382 -391 -41 -82 -88 -227 -84 -260
3 -33 5 -31 37 57 46 125 154 244 278 305 98 48 173 42 257 -23 25 -19 45 -30
45 -26 0 23 -64 105 -101 129 -37 24 -52 28 -116 28 l-74 0 33 27 c91 75 214
117 293 100 25 -5 45 -6 45 -2 0 14 -96 58 -140 63 -25 3 -66 0 -91 -7z m62
-32 c-30 -8 -77 -28 -105 -44 -51 -29 -184 -139 -156 -128 49 19 50 17 4 -10
-28 -17 -68 -50 -88 -74 l-37 -43 27 45 c103 171 234 269 359 269 l50 0 -54
-15z m-80 -175 c56 -19 52 -24 -19 -24 -81 0 -149 -30 -232 -102 -43 -38 -50
-42 -33 -18 55 78 99 117 153 135 65 23 85 24 131 9z"/>
<path d="M1606 764 c-9 -8 -16 -24 -16 -34 0 -21 35 -50 61 -50 23 0 40 -23
29 -39 -6 -10 -19 -12 -49 -7 -47 7 -56 -9 -14 -25 63 -24 127 28 88 71 -9 10
-33 24 -51 30 -58 20 -36 56 26 43 18 -3 30 -1 30 5 0 25 -80 30 -104 6z"/>
<path d="M1840 713 c-17 -37 -33 -78 -36 -90 -8 -31 13 -30 28 2 15 34 78 36
100 4 8 -12 19 -20 25 -18 16 5 -55 169 -73 169 -8 0 -28 -30 -44 -67z m48
-31 c-27 -5 -30 1 -17 34 l11 29 12 -30 c11 -27 11 -30 -6 -33z"/>
<path d="M2069 763 c-5 -142 -4 -158 11 -158 10 0 14 9 13 26 -2 24 3 27 37
33 46 7 70 28 70 61 0 33 -36 55 -87 55 -34 0 -43 -4 -44 -17z m97 -28 c9 -23
-15 -45 -47 -45 -24 0 -27 3 -24 28 2 15 4 28 4 30 3 10 63 -1 67 -13z"/>
<path d="M2318 750 c-26 -27 -30 -36 -25 -68 15 -89 132 -109 173 -30 49 94
-72 173 -148 98z m108 -16 c20 -19 24 -31 19 -52 -16 -70 -104 -70 -120 0 -5
21 -1 33 19 52 14 15 32 26 41 26 9 0 27 -11 41 -26z"/>
<path d="M2582 695 c3 -84 20 -121 26 -57 4 42 34 43 58 2 19 -31 40 -45 48
-31 3 4 -4 20 -14 36 -15 24 -16 31 -5 39 25 20 27 54 6 75 -16 16 -34 21 -71
21 l-51 0 3 -85z m101 43 c8 -25 -6 -38 -39 -38 -30 0 -34 3 -34 25 0 22 4 25
34 25 19 0 36 -6 39 -12z"/>
<path d="M2822 693 c2 -58 7 -88 16 -91 9 -3 12 19 12 87 0 75 -3 91 -15 91
-13 0 -15 -14 -13 -87z"/>
<path d="M3112 693 l3 -88 55 2 c46 1 59 6 78 28 30 36 29 88 -3 120 -20 21
-34 25 -80 25 l-56 0 3 -87z m112 41 c40 -39 5 -104 -56 -104 -28 0 -28 1 -28
60 l0 60 34 0 c19 0 42 -7 50 -16z"/>
<path d="M3372 693 c2 -58 7 -88 16 -91 9 -3 12 19 12 87 0 75 -3 91 -15 91
-13 0 -15 -14 -13 -87z"/>
<path d="M3640 765 c0 -10 10 -15 30 -15 l30 0 0 -76 c0 -56 3 -75 13 -72 8 3
13 30 15 76 3 69 4 72 27 72 16 0 25 6 25 15 0 12 -14 15 -70 15 -56 0 -70 -3
-70 -15z"/>
<path d="M3880 689 c0 -68 3 -90 13 -87 6 3 13 19 15 36 2 24 8 32 23 32 10 0
19 -3 19 -7 1 -5 11 -21 24 -37 32 -39 54 -25 25 15 -19 28 -20 31 -5 48 40
44 5 91 -67 91 l-47 0 0 -91z m95 36 c0 -15 -8 -21 -32 -23 -30 -3 -33 -1 -33
23 0 24 3 26 33 23 24 -2 32 -8 32 -23z"/>
<path d="M4137 698 c-19 -45 -33 -86 -30 -91 7 -11 33 12 33 29 0 10 13 14 45
14 32 0 45 -4 45 -14 0 -16 28 -41 37 -33 10 11 -62 172 -79 175 -11 2 -26
-22 -51 -80z m73 -10 c0 -5 -11 -8 -24 -8 -24 0 -24 2 -14 31 l11 32 13 -24
c7 -13 13 -27 14 -31z"/>
<path d="M4360 696 c0 -93 1 -94 69 -90 59 5 91 34 91 86 0 60 -34 88 -105 88
l-55 0 0 -84z m118 42 c7 -7 12 -27 12 -44 0 -38 -29 -64 -72 -64 -28 0 -28 1
-28 60 l0 60 38 0 c21 0 43 -5 50 -12z"/>
<path d="M4630 695 c0 -69 3 -85 15 -85 12 0 15 16 15 85 0 69 -3 85 -15 85
-12 0 -15 -16 -15 -85z"/>
<path d="M4762 768 c3 -7 23 -15 46 -18 l42 -5 -46 -58 c-25 -31 -44 -62 -42
-69 4 -12 90 -20 121 -12 33 10 17 23 -33 26 l-49 3 49 64 c28 35 50 67 50 72
0 5 -32 9 -71 9 -52 0 -70 -3 -67 -12z"/>
<path d="M5000 695 c0 -69 3 -85 15 -85 12 0 15 16 15 85 0 69 -3 85 -15 85
-12 0 -15 -16 -15 -85z"/>
<path d="M5163 756 c-37 -32 -39 -99 -4 -127 51 -42 119 -31 146 22 21 40 19
63 -11 98 -33 40 -89 43 -131 7z m102 -21 c30 -29 32 -58 5 -85 -37 -37 -93
-20 -105 32 -5 21 -1 33 19 52 31 32 50 33 81 1z"/>
<path d="M5420 691 c0 -75 2 -89 15 -85 9 4 15 24 17 61 l3 56 48 -62 c26 -34
52 -59 57 -56 6 3 10 44 10 91 0 68 -3 84 -15 84 -12 0 -15 -14 -15 -62 l0
-61 -46 59 c-67 86 -74 84 -74 -25z"/>
<path d="M5682 693 l3 -88 59 0 c39 0 61 4 63 13 3 8 -10 12 -46 12 -48 0 -51
2 -51 25 0 23 4 25 40 25 29 0 40 4 40 15 0 11 -11 15 -40 15 -33 0 -40 3 -40
19 0 17 8 20 48 23 68 4 58 22 -16 26 l-63 3 3 -88z"/>
<path d="M690 630 c0 -11 -4 -20 -10 -20 -5 0 -10 -8 -9 -17 1 -23 37 -102 38
-84 1 11 5 10 15 -5 26 -34 28 -8 5 70 -21 73 -39 98 -39 56z"/>
</g>
</svg>
