<?xml version="1.0" standalone="no"?>
<!DOCTYPE svg PUBLIC "-//W3C//DTD SVG 20010904//EN"
 "http://www.w3.org/TR/2001/REC-SVG-20010904/DTD/svg10.dtd">
<svg version="1.0" xmlns="http://www.w3.org/2000/svg"
 width="600.000000pt" height="600.000000pt" viewBox="0 0 600.000000 600.000000"
 preserveAspectRatio="xMidYMid meet">
<g transform="translate(0.000000,600.000000) scale(0.100000,-0.100000)"
fill="#000000" stroke="none">
<path d="M1695 4940 c-29 -11 -37 -24 -83 -125 -54 -121 -136 -292 -341 -708
l-171 -349 0 -78 c0 -151 35 -253 116 -340 26 -28 69 -63 96 -78 l48 -27 0
-876 0 -877 -44 -6 c-53 -8 -124 -52 -159 -98 -41 -54 -57 -111 -57 -208 0
-71 3 -90 18 -103 17 -16 162 -17 1878 -17 1518 0 1863 2 1878 13 22 16 31 83
22 170 -13 122 -105 227 -211 243 l-45 6 0 878 0 878 53 30 c62 35 117 93 151
159 34 68 44 114 50 223 6 112 15 87 -210 545 -75 154 -185 381 -244 505 -79
168 -112 228 -131 237 -19 10 -308 13 -1309 12 -707 0 -1294 -4 -1305 -9z
m2578 -212 c20 -46 37 -89 37 -95 0 -10 -270 -13 -1316 -13 -724 0 -1314 4
-1312 8 2 5 21 48 43 95 l40 87 1235 0 1236 0 37 -82z m-2233 -250 c0 -7 -42
-159 -94 -338 l-93 -325 -282 -3 c-171 -1 -281 1 -281 7 0 17 320 655 333 663
6 4 103 8 215 8 155 0 202 -3 202 -12z m585 0 c3 -7 -10 -159 -28 -338 l-32
-325 -284 -3 c-267 -2 -283 -1 -278 15 2 10 30 106 62 213 31 107 71 244 87
304 16 61 34 118 39 128 9 16 28 18 220 18 159 0 211 -3 214 -12z m589 3 c3
-4 15 -108 26 -230 11 -122 24 -261 30 -309 5 -48 10 -97 10 -109 l0 -23 -285
0 -285 0 0 28 c0 15 9 106 19 202 11 96 25 234 31 305 7 72 14 133 17 138 6
10 431 9 437 -2z m582 1 c6 -4 15 -23 19 -42 4 -19 45 -166 91 -327 46 -161
84 -295 84 -298 0 -3 -127 -5 -283 -5 l-283 0 -31 333 c-17 182 -29 335 -26
340 5 9 414 9 429 -1z m590 -4 c8 -12 312 -634 321 -656 4 -10 -53 -12 -282
-10 l-287 3 -94 329 c-51 181 -91 332 -88 337 8 14 421 11 430 -3z m-2575
-852 c-6 -106 -71 -210 -157 -251 -112 -53 -246 -32 -326 51 -48 50 -79 121
-85 196 l-6 58 289 -2 288 -3 -3 -49z m735 -8 c-20 -174 -143 -279 -310 -266
-142 12 -237 106 -255 253 -4 36 -5 67 -3 70 3 3 133 5 290 5 l285 0 -7 -62z
m734 14 c0 -101 -56 -195 -148 -250 -41 -24 -57 -27 -132 -27 -70 0 -93 4
-129 24 -92 48 -146 131 -157 240 l-7 61 287 0 286 0 0 -48z m736 -14 c-9 -87
-47 -160 -107 -208 -57 -45 -101 -60 -176 -60 -131 0 -255 98 -278 220 -10 55
-13 94 -8 103 2 4 133 7 290 7 l286 0 -7 -62z m736 7 c-12 -186 -160 -309
-331 -274 -136 27 -223 126 -238 271 l-6 58 289 -2 289 -3 -3 -50z m-2788
-293 c23 -25 69 -57 113 -79 179 -88 390 -40 517 118 39 49 39 49 54 26 113
-170 341 -235 524 -150 63 30 147 100 179 151 l14 23 38 -50 c133 -179 411
-214 585 -74 31 26 62 54 69 62 44 60 41 58 64 31 93 -114 183 -168 298 -178
l71 -7 3 -860 2 -860 -193 0 -192 0 -3 630 c-2 694 2 653 -64 696 -26 18 -55
19 -401 19 -412 0 -414 0 -452 -63 -19 -31 -20 -55 -20 -659 l0 -628 -835 0
-835 0 0 864 0 863 73 5 c116 8 240 80 298 175 l23 36 15 -24 c9 -13 34 -43
55 -67z m2001 -1242 l0 -605 -327 -3 -328 -2 0 603 c0 332 3 607 7 610 4 4
151 6 327 5 l321 -3 0 -605z m697 -750 c53 -15 88 -61 88 -116 l0 -44 -1755 0
-1755 0 0 25 c0 60 42 119 96 135 43 12 3280 12 3326 0z"/>
<path d="M1936 2809 c-55 -43 -56 -49 -56 -416 0 -318 1 -340 20 -370 38 -64
41 -64 446 -61 l366 3 34 37 34 38 0 351 c0 385 0 387 -60 423 -25 14 -73 16
-393 16 -354 0 -365 -1 -391 -21z m704 -409 l0 -299 -282 -3 c-156 -2 -295 -2
-310 0 l-28 3 0 300 0 299 310 0 310 0 0 -300z"/>
</g>
</svg>
