<?xml version="1.0" standalone="no"?>
<!DOCTYPE svg PUBLIC "-//W3C//DTD SVG 20010904//EN"
 "http://www.w3.org/TR/2001/REC-SVG-20010904/DTD/svg10.dtd">
<svg version="1.0" xmlns="http://www.w3.org/2000/svg"
 width="600.000000pt" height="400.000000pt" viewBox="0 0 600.000000 400.000000"
 preserveAspectRatio="xMidYMid meet">
<g transform="translate(0.000000,400.000000) scale(0.100000,-0.100000)"
fill="#000000" stroke="none">
<path d="M2940 3626 c-174 -137 -251 -276 -236 -425 7 -68 48 -171 80 -204 25
-24 6 -21 -45 7 -24 14 -71 32 -104 40 -75 20 -208 21 -224 2 -15 -18 -16
-341 -1 -397 21 -76 64 -153 117 -208 29 -30 53 -56 53 -58 0 -2 -35 -3 -79
-3 -53 0 -82 -4 -90 -13 -15 -18 -17 -328 -2 -389 19 -80 63 -159 122 -220
l57 -58 -83 0 c-59 0 -86 -4 -94 -14 -8 -10 -11 -71 -11 -196 1 -151 5 -191
21 -238 68 -198 216 -310 432 -328 l82 -6 -7 -152 c-9 -181 -3 -243 25 -273
29 -32 70 -30 97 4 20 26 21 36 18 225 -2 127 1 198 7 199 6 1 16 1 23 0 7 -1
47 3 90 9 180 25 332 151 392 325 17 49 20 84 20 232 0 101 -4 182 -10 194 -9
17 -22 19 -100 19 l-90 0 46 42 c61 56 100 114 129 193 23 61 25 79 25 243 0
125 -4 182 -12 190 -7 7 -43 12 -90 12 -43 0 -78 3 -78 6 0 3 22 26 48 52 30
29 64 78 88 127 l39 79 3 193 c3 141 0 198 -8 209 -17 19 -145 19 -229 -1 -36
-9 -87 -29 -113 -45 -26 -17 -48 -28 -48 -25 0 3 13 23 29 46 44 60 65 132 64
219 -1 93 -26 164 -88 242 -40 51 -189 188 -204 188 -3 0 -31 -20 -61 -44z
m135 -47 c134 -113 194 -219 195 -341 0 -129 -50 -217 -188 -330 l-83 -68 -64
51 c-96 75 -160 151 -185 217 -18 47 -21 72 -18 142 5 87 27 148 82 223 19 27
174 167 184 167 2 0 37 -28 77 -61z m-426 -568 c125 -39 218 -120 274 -239 32
-67 32 -67 35 -256 l4 -189 -99 6 c-154 9 -242 46 -327 137 -91 98 -116 185
-116 411 l0 149 84 0 c54 0 106 -7 145 -19z m931 -130 c0 -168 -10 -234 -45
-306 -72 -148 -210 -231 -402 -242 l-93 -6 0 172 c0 186 12 248 64 329 87 134
213 200 384 201 l92 1 0 -149z m-582 -61 c9 0 43 21 75 46 l58 45 -35 -51
c-67 -97 -79 -145 -84 -338 -6 -224 -5 -226 109 -220 43 3 79 4 79 3 0 0 -25
-27 -56 -59 -62 -63 -108 -151 -124 -235 -5 -30 -10 -121 -10 -202 0 -139 1
-150 21 -170 20 -20 29 -21 100 -15 l78 6 -60 -59 c-66 -66 -112 -152 -129
-240 -5 -30 -10 -127 -10 -217 0 -103 -4 -164 -10 -164 -6 0 -10 59 -10 158 0
87 -5 185 -11 218 -16 90 -60 172 -129 242 l-61 61 79 -6 c72 -5 81 -4 101 16
20 20 21 31 21 169 0 232 -31 332 -135 441 l-53 56 78 -3 c113 -4 114 -2 108
216 -5 182 -20 245 -75 326 -16 22 -32 47 -37 54 -4 8 17 -7 48 -32 31 -25 64
-46 74 -46z m-369 -475 c131 -31 235 -113 293 -232 l33 -68 3 -197 4 -196 -94
5 c-51 3 -118 12 -148 20 -146 41 -261 170 -290 322 -5 29 -10 123 -10 207 l0
154 73 0 c39 0 101 -7 136 -15z m951 -133 c0 -170 -11 -245 -47 -317 -38 -74
-70 -112 -132 -156 -68 -49 -157 -76 -274 -83 l-89 -5 4 197 4 197 34 68 c44
89 136 177 217 207 77 29 124 38 211 39 l72 1 0 -148z m-859 -584 c92 -45 157
-111 202 -206 l32 -67 3 -201 4 -201 -74 4 c-124 7 -153 13 -224 47 -117 56
-209 178 -233 311 -6 32 -11 126 -11 208 l0 149 113 -4 c105 -3 117 -6 188
-40z m859 -112 c0 -84 -5 -178 -10 -207 -15 -78 -57 -155 -120 -220 -85 -87
-175 -124 -322 -132 l-88 -5 0 184 c0 243 17 299 124 412 78 82 178 120 319
121 l97 1 0 -154z m-557 -599 c16 -11 17 -33 15 -212 l-3 -200 -28 -3 c-54 -6
-57 3 -57 209 0 183 1 188 22 203 27 19 30 19 51 3z"/>
</g>
</svg>
