<?xml version="1.0" standalone="no"?>
<!DOCTYPE svg PUBLIC "-//W3C//DTD SVG 20010904//EN"
 "http://www.w3.org/TR/2001/REC-SVG-20010904/DTD/svg10.dtd">
<svg version="1.0" xmlns="http://www.w3.org/2000/svg"
 width="600.000000pt" height="600.000000pt" viewBox="0 0 600.000000 600.000000"
 preserveAspectRatio="xMidYMid meet">
<g transform="translate(0.000000,600.000000) scale(0.100000,-0.100000)"
fill="#000000" stroke="none">
<path d="M3688 4686 c-179 -74 -395 -257 -499 -425 -42 -67 -46 -70 -82 -71
-30 0 -54 -12 -115 -57 -153 -112 -315 -286 -385 -413 -35 -62 -38 -64 -70
-62 -30 3 -46 -6 -126 -74 -160 -133 -306 -314 -371 -458 -61 -133 -83 -229
-83 -361 0 -103 4 -132 27 -202 41 -126 112 -221 210 -278 15 -9 6 -22 -66
-105 -256 -292 -564 -676 -574 -716 -12 -49 44 -96 95 -79 11 3 76 77 143 163
147 190 279 350 407 495 l95 109 20 -29 c90 -126 248 -189 451 -180 227 11
406 107 635 340 147 151 222 245 217 275 -4 19 9 32 82 79 95 63 286 247 364
353 38 50 48 71 45 92 -4 26 3 34 76 85 103 71 243 211 334 333 80 108 199
301 209 338 9 37 -9 75 -40 86 -24 9 -41 3 -125 -41 -87 -46 -221 -93 -264
-93 -10 0 17 34 66 83 139 139 221 295 282 536 71 278 56 297 -208 251 -277
-47 -483 -164 -618 -349 -25 -34 -48 -61 -52 -61 -13 0 -9 182 6 235 7 28 23
73 35 101 21 48 22 54 7 82 -25 49 -46 52 -128 18z m832 -172 c0 -9 -14 -64
-31 -123 -72 -250 -190 -427 -351 -523 -77 -47 -123 -61 -213 -62 -78 -1 -120
8 -128 26 -7 20 10 126 32 198 50 159 190 323 341 397 81 39 173 70 270 91 67
15 80 14 80 -4z m-897 -141 c-5 -115 -3 -138 21 -228 14 -54 26 -111 26 -125
0 -47 -41 -174 -77 -240 -77 -141 -228 -287 -283 -273 -23 6 -80 91 -103 154
-76 202 1 439 214 664 54 57 191 174 205 175 1 0 -1 -57 -3 -127z m-578 -400
c-4 -10 -10 -58 -12 -108 -6 -107 10 -185 63 -292 l36 -72 -21 -83 c-11 -46
-40 -121 -63 -168 -34 -69 -59 -103 -138 -182 -62 -63 -104 -98 -118 -98 -25
0 -63 38 -98 96 -76 128 -89 278 -37 426 48 137 120 245 255 380 111 112 149
141 133 101z m1369 -371 c-237 -316 -488 -473 -696 -434 -74 14 -204 85 -223
123 -12 23 -12 31 7 65 85 161 252 289 413 317 54 9 79 8 155 -7 108 -22 242
-18 335 11 33 11 62 15 63 11 2 -5 -22 -43 -54 -86z m-1941 -219 c-8 -102 18
-219 72 -329 25 -51 45 -106 45 -121 0 -50 -65 -219 -115 -298 -53 -85 -146
-190 -193 -217 l-30 -18 -49 54 c-93 102 -128 287 -87 455 37 150 143 327 276
461 43 44 80 80 82 80 2 0 1 -30 -1 -67z m826 1 c3 -3 -10 -18 -28 -35 -18
-16 -35 -28 -38 -26 -2 3 -1 22 3 42 6 33 9 36 33 30 14 -4 28 -9 30 -11z m86
-113 c8 -14 -13 -24 -33 -16 -14 5 -14 7 -2 15 19 12 27 12 35 1z m138 -180
c105 -58 170 -74 283 -69 52 1 94 0 94 -4 0 -15 -200 -207 -262 -251 -203
-143 -374 -171 -545 -87 -81 39 -153 97 -153 122 0 28 77 134 136 186 97 88
216 139 327 141 38 1 63 -7 120 -38z m-780 -241 c4 0 5 6 1 13 -4 6 -3 9 1 4
10 -9 15 -48 5 -42 -4 3 -15 -4 -25 -15 -25 -28 -36 -25 -29 8 11 52 14 56 26
44 7 -7 16 -12 21 -12z m109 -132 c-5 -5 -20 -8 -33 -6 l-24 3 25 23 c21 20
25 20 33 6 6 -10 5 -20 -1 -26z m188 -171 c93 -44 176 -60 274 -55 42 2 76 0
76 -4 0 -4 -39 -48 -87 -99 -205 -216 -409 -318 -608 -306 -129 8 -238 61
-272 132 -15 31 -14 35 13 86 34 64 133 166 198 204 54 32 134 63 191 75 67
15 135 4 215 -33z"/>
</g>
</svg>
