<?xml version="1.0" standalone="no"?>
<!DOCTYPE svg PUBLIC "-//W3C//DTD SVG 20010904//EN"
 "http://www.w3.org/TR/2001/REC-SVG-20010904/DTD/svg10.dtd">
<svg version="1.0" xmlns="http://www.w3.org/2000/svg"
 width="600.000000pt" height="600.000000pt" viewBox="0 0 600.000000 600.000000"
 preserveAspectRatio="xMidYMid meet">
<g transform="translate(0.000000,600.000000) scale(0.100000,-0.100000)"
fill="#000000" stroke="none">
<path d="M3124 5146 c-85 -170 -97 -201 -101 -257 -5 -80 5 -99 41 -76 44 29
72 101 85 215 6 61 25 145 45 207 19 58 32 105 30 105 -2 0 -47 -87 -100 -194z"/>
<path d="M3270 4994 c-57 -115 -71 -135 -151 -215 -49 -49 -89 -93 -89 -98 0
-5 -3 -17 -7 -26 -5 -15 -1 -16 38 -10 107 18 142 62 204 249 72 221 74 226
70 226 -1 0 -31 -57 -65 -126z"/>
<path d="M2922 5038 c-64 -218 -68 -326 -16 -406 l17 -26 18 22 c10 13 23 47
30 77 11 49 10 63 -11 140 -19 69 -22 101 -18 175 3 49 4 90 3 90 -1 0 -12
-33 -23 -72z"/>
<path d="M2695 4812 c-51 -162 -61 -312 -24 -391 38 -84 43 -83 49 10 4 54 1
100 -7 129 -15 54 -17 177 -3 250 6 29 9 55 7 56 -2 2 -12 -22 -22 -54z"/>
<path d="M2798 4635 c-47 -142 -54 -203 -34 -280 8 -32 24 -67 34 -78 19 -19
20 -19 44 15 14 18 30 48 37 67 16 48 14 139 -4 193 -9 25 -21 78 -28 119
l-13 74 -36 -110z"/>
<path d="M3288 4681 c-38 -50 -104 -91 -149 -91 -65 0 -187 -92 -202 -152 -5
-19 -2 -20 46 -15 29 3 63 9 76 13 23 7 22 4 -12 -41 -56 -73 -49 -92 22 -56
48 25 89 71 139 158 42 72 124 233 119 233 -1 0 -19 -22 -39 -49z"/>
<path d="M4267 4673 c-168 -180 -203 -230 -214 -308 l-6 -46 29 11 c56 21 90
68 139 189 27 64 61 135 76 159 16 23 27 42 24 42 -2 0 -24 -21 -48 -47z"/>
<path d="M3996 4538 c-75 -152 -101 -261 -77 -322 6 -17 11 -15 38 19 37 45
53 101 53 189 0 42 9 93 25 143 13 42 23 79 21 81 -2 2 -29 -48 -60 -110z"/>
<path d="M3771 4419 c-62 -133 -74 -176 -79 -284 -2 -55 -2 -98 1 -95 18 19
56 147 61 210 6 72 33 177 57 221 6 11 8 23 5 26 -3 4 -23 -32 -45 -78z"/>
<path d="M2569 4378 c-34 -130 -34 -284 0 -347 27 -52 64 -91 85 -91 39 0 28
83 -30 240 -24 65 -28 89 -28 183 1 59 0 107 -2 107 -1 0 -12 -42 -25 -92z"/>
<path d="M3215 4402 c-11 -20 -76 -93 -145 -162 -119 -118 -170 -189 -170
-235 0 -41 125 10 184 75 21 24 52 72 68 107 29 64 90 244 85 249 -2 2 -12
-13 -22 -34z"/>
<path d="M4250 4371 c-47 -48 -86 -76 -140 -102 -41 -20 -86 -48 -99 -62 l-23
-26 40 -12 c22 -6 53 -8 69 -5 40 10 109 87 170 189 28 48 51 87 50 86 -1 0
-31 -31 -67 -68z"/>
<path d="M3833 4262 c-92 -146 -128 -284 -89 -338 14 -19 15 -19 43 2 58 43
77 96 84 239 4 72 12 143 18 159 21 52 6 36 -56 -62z"/>
<path d="M2857 4267 c-4 -10 -18 -23 -33 -29 -23 -11 -28 -9 -44 12 -22 30
-29 24 -58 -47 -29 -68 -30 -189 -3 -249 26 -56 35 -59 66 -23 69 83 115 259
86 333 -7 18 -8 18 -14 3z"/>
<path d="M4239 4174 c-50 -52 -87 -72 -168 -89 -78 -16 -123 -36 -159 -69 -25
-22 -52 -67 -52 -86 0 -16 65 -12 120 9 l49 19 -34 -46 c-57 -74 -42 -94 34
-44 37 24 121 138 244 330 14 21 2 13 -34 -24z"/>
<path d="M3160 4119 c0 -32 -93 -169 -173 -256 -85 -92 -147 -193 -147 -239 0
-21 3 -22 32 -14 88 26 170 116 218 241 36 95 84 268 76 277 -3 3 -6 -1 -6 -9z"/>
<path d="M3572 4038 c-48 -98 -72 -182 -72 -256 0 -64 17 -137 36 -153 26 -21
38 37 39 191 1 135 14 229 37 273 5 10 8 21 5 23 -2 3 -23 -32 -45 -78z"/>
<path d="M2436 3975 c-15 -158 31 -306 121 -385 34 -30 49 -37 55 -28 22 36
-7 123 -84 249 -45 73 -73 149 -80 214 -2 17 -7 -6 -12 -50z"/>
<path d="M4109 3901 c-45 -46 -90 -80 -138 -104 -118 -60 -207 -132 -224 -179
-6 -16 1 -18 51 -18 105 1 182 56 279 201 49 73 107 170 101 168 -2 0 -33 -31
-69 -68z"/>
<path d="M2674 3864 c-26 -52 -29 -70 -29 -154 0 -77 4 -103 21 -134 25 -49
36 -53 64 -24 50 54 95 212 84 296 -3 26 -7 48 -9 50 -2 2 -16 -4 -30 -14 -27
-18 -28 -18 -50 10 l-22 28 -29 -58z"/>
<path d="M3684 3888 c-63 -72 -100 -202 -80 -282 8 -34 18 -33 65 10 61 54
118 164 135 256 l7 38 -36 -21 c-20 -12 -37 -20 -38 -18 -2 2 -8 15 -13 28
l-10 23 -30 -34z"/>
<path d="M3367 3692 c-67 -181 -60 -368 15 -416 23 -14 30 -5 39 51 5 32 2 74
-9 128 -9 44 -16 131 -17 193 0 61 -1 112 -1 112 -1 0 -13 -31 -27 -68z"/>
<path d="M3065 3693 c-30 -80 -81 -164 -151 -248 -84 -101 -118 -150 -135
-197 -15 -43 -10 -53 24 -44 90 22 185 137 229 276 27 83 62 250 55 257 -2 2
-12 -18 -22 -44z"/>
<path d="M2391 3605 c-1 -163 37 -280 122 -372 44 -47 91 -78 107 -68 31 19
-1 94 -97 222 -66 89 -100 161 -118 250 l-13 68 -1 -100z"/>
<path d="M3975 3589 c-28 -28 -81 -69 -120 -91 -134 -77 -188 -120 -229 -182
-36 -54 -34 -60 22 -53 135 16 220 95 355 330 15 26 26 47 25 47 -2 0 -26 -23
-53 -51z"/>
<path d="M3541 3565 c-57 -65 -86 -139 -86 -222 0 -42 5 -77 12 -84 16 -16 66
15 99 62 31 45 80 161 90 213 6 36 6 38 -14 27 -32 -17 -47 -13 -58 16 l-9 26
-34 -38z"/>
<path d="M2750 3533 c0 -16 -28 -43 -45 -43 -7 0 -21 7 -29 16 -15 14 -18 12
-33 -23 -11 -25 -17 -65 -17 -118 0 -67 4 -88 25 -125 31 -57 56 -59 85 -6 31
55 48 145 40 217 -5 53 -25 115 -26 82z"/>
<path d="M3216 3368 c-24 -96 -33 -283 -16 -343 8 -28 25 -56 43 -71 29 -25
32 -25 44 -8 21 29 15 91 -18 204 -25 83 -32 125 -33 198 0 50 -1 92 -1 92 -1
0 -9 -33 -19 -72z"/>
<path d="M1520 3378 c0 -2 29 -28 65 -57 118 -96 231 -254 484 -679 73 -123
131 -225 129 -227 -3 -3 -24 19 -47 48 -82 101 -267 291 -339 348 -227 181
-446 217 -642 106 l-55 -31 90 -12 c119 -15 166 -29 250 -72 81 -43 169 -123
292 -266 177 -204 261 -291 438 -451 329 -297 455 -447 584 -700 114 -223 38
-6 -142 405 -66 151 -152 356 -192 455 -135 336 -230 538 -316 678 -166 268
-361 427 -554 454 -25 3 -45 4 -45 1z m338 -240 c101 -102 176 -206 265 -366
72 -129 257 -522 257 -546 0 -5 -55 84 -121 199 -309 533 -411 697 -483 774
-59 64 7 15 82 -61z m-325 -258 c77 -24 143 -59 217 -116 60 -46 256 -242 317
-316 21 -25 85 -102 143 -170 141 -164 358 -454 348 -463 -2 -2 -30 28 -63 66
-33 39 -139 144 -236 235 -175 164 -266 258 -414 429 -176 204 -263 283 -368
330 -66 30 -34 33 56 5z"/>
<path d="M3815 3269 c-50 -66 -131 -133 -231 -193 -88 -53 -124 -81 -148 -118
-15 -24 -15 -26 -1 -32 31 -11 90 -6 131 13 96 44 192 164 276 344 9 20 16 37
15 37 -2 0 -21 -23 -42 -51z"/>
<path d="M3506 3237 c-37 -22 -38 -22 -52 -3 -14 19 -14 19 -38 -3 -13 -13
-39 -50 -57 -84 -26 -49 -32 -73 -32 -119 0 -32 5 -64 11 -70 18 -18 84 32
127 98 34 50 92 190 83 199 -2 2 -21 -6 -42 -18z"/>
<path d="M2727 3186 c-20 -30 -48 -34 -68 -10 -12 15 -16 -3 -31 -127 -64
-532 -11 -1028 163 -1544 64 -186 64 -188 78 -152 16 41 14 73 -9 147 -164
531 -208 1065 -129 1563 11 70 19 133 17 139 -2 6 -12 -1 -21 -16z"/>
<path d="M3263 2878 c-65 -129 -94 -191 -134 -291 -115 -287 -199 -678 -215
-1005 l-6 -117 35 78 c25 55 39 105 47 170 45 351 163 741 323 1069 79 159 81
165 53 151 -27 -14 -31 -14 -41 1 -7 9 -15 16 -18 16 -4 0 -23 -33 -44 -72z"/>
<path d="M3934 2560 c-198 -52 -404 -197 -575 -406 -201 -246 -418 -684 -544
-1099 -35 -114 -85 -302 -85 -317 0 -5 16 -8 35 -8 32 0 35 3 45 43 26 101 76
239 120 333 181 377 548 718 841 780 178 38 385 -23 542 -158 32 -28 60 -48
63 -45 10 10 -56 126 -114 198 -67 85 -135 140 -242 197 -92 49 -141 64 -245
71 l-80 6 105 73 c123 86 255 152 366 183 106 30 252 30 344 1 l65 -21 -49 44
c-109 97 -250 145 -420 144 -65 0 -126 -7 -172 -19z m362 -68 c15 -9 6 -11
-51 -12 -175 0 -367 -90 -585 -274 -240 -202 -425 -408 -567 -635 -29 -46 -53
-81 -53 -77 0 16 143 287 195 371 173 276 374 474 581 572 121 57 198 73 340
70 66 -2 129 -9 140 -15z m-403 -447 c58 -17 172 -72 188 -91 9 -11 4 -11 -31
1 -154 54 -342 28 -506 -71 -133 -80 -298 -229 -406 -365 -100 -128 -88 -98
34 83 143 211 281 353 403 414 112 55 199 63 318 29z"/>
<path d="M2992 1135 c-17 -37 -17 -37 39 -209 41 -127 54 -156 69 -156 10 0
26 -3 36 -7 14 -5 16 -2 10 23 -9 38 -127 357 -136 367 -3 4 -12 -4 -18 -18z"/>
<path d="M2936 1013 c-3 -15 5 -70 18 -123 20 -80 26 -95 45 -98 11 -2 21 0
21 5 0 15 -63 228 -71 236 -4 5 -10 -4 -13 -20z"/>
</g>
</svg>
