<?xml version="1.0" standalone="no"?>
<!DOCTYPE svg PUBLIC "-//W3C//DTD SVG 20010904//EN"
 "http://www.w3.org/TR/2001/REC-SVG-20010904/DTD/svg10.dtd">
<svg version="1.0" xmlns="http://www.w3.org/2000/svg"
 width="600.000000pt" height="248.000000pt" viewBox="0 0 600.000000 248.000000"
 preserveAspectRatio="xMidYMid meet">
<g transform="translate(0.000000,248.000000) scale(0.100000,-0.100000)"
fill="#000000" stroke="none">
<path d="M691 1618 c-5 -13 -26 -76 -46 -140 l-38 -118 -142 0 c-116 0 -145
-3 -155 -15 -16 -19 -22 -13 118 -110 61 -43 112 -81 112 -84 0 -4 -18 -61
-40 -126 -43 -129 -49 -165 -25 -165 9 0 63 36 122 80 58 44 112 80 118 80 7
0 61 -36 119 -80 105 -79 130 -92 139 -67 2 6 -16 70 -40 142 -23 71 -43 132
-43 136 0 3 52 42 115 85 88 61 114 84 112 99 -2 19 -10 20 -145 21 -79 1
-145 3 -146 5 -2 2 -23 65 -47 139 -32 99 -49 136 -61 138 -11 2 -21 -5 -27
-20z"/>
<path d="M1831 1618 c-5 -13 -26 -76 -46 -140 l-38 -118 -142 0 c-142 0 -176
-8 -157 -36 4 -6 58 -45 120 -88 61 -43 112 -81 112 -84 0 -4 -18 -63 -40
-132 -22 -68 -40 -132 -40 -142 0 -33 31 -19 137 62 58 44 111 80 118 80 7 0
62 -36 121 -80 157 -116 164 -112 100 75 -31 92 -41 134 -34 142 6 7 59 47
119 89 60 42 109 80 109 84 0 25 -35 31 -160 29 -74 -1 -135 2 -141 8 -5 5
-28 68 -52 139 -31 94 -47 130 -59 132 -11 2 -21 -5 -27 -20z"/>
<path d="M2983 1628 c-4 -7 -26 -69 -49 -138 l-40 -125 -150 -5 c-193 -6 -194
-11 -44 -115 61 -43 114 -83 117 -90 2 -8 -14 -71 -37 -141 -59 -185 -52 -190
100 -74 58 44 112 79 120 80 8 0 62 -36 120 -80 152 -116 158 -112 99 69 -23
70 -40 135 -36 143 3 9 56 50 117 93 150 104 149 109 -44 115 l-149 5 -41 125
c-23 69 -45 131 -49 138 -10 15 -24 15 -34 0z"/>
<path d="M4126 1623 c-4 -10 -25 -73 -47 -140 l-40 -122 -147 -3 c-138 -3
-147 -4 -147 -23 0 -13 34 -43 113 -98 61 -43 112 -84 112 -90 0 -7 -18 -67
-40 -132 -22 -65 -40 -127 -40 -137 0 -33 32 -19 140 62 59 44 112 80 119 80
6 0 59 -36 118 -80 155 -116 161 -112 102 69 -23 70 -40 135 -36 144 3 8 56
50 116 92 155 107 151 117 -52 114 -70 0 -131 2 -135 6 -4 4 -27 66 -52 138
-45 131 -68 164 -84 120z"/>
<path d="M5266 1608 c-8 -18 -28 -81 -46 -140 l-33 -108 -142 0 c-132 0 -165
-6 -165 -30 0 -4 52 -42 115 -86 63 -43 116 -83 118 -89 2 -5 -16 -70 -40
-143 -24 -74 -41 -138 -37 -143 12 -20 39 -6 138 71 57 44 111 80 119 80 8 0
62 -36 120 -80 105 -80 137 -95 137 -63 0 10 -18 73 -41 141 -22 67 -39 128
-36 135 3 7 55 46 116 87 85 58 110 80 108 95 -2 19 -10 20 -132 22 -71 1
-138 2 -147 3 -13 0 -27 32 -61 137 -47 151 -66 173 -91 111z"/>
</g>
</svg>
