<?xml version="1.0" standalone="no"?>
<!DOCTYPE svg PUBLIC "-//W3C//DTD SVG 20010904//EN"
 "http://www.w3.org/TR/2001/REC-SVG-20010904/DTD/svg10.dtd">
<svg version="1.0" xmlns="http://www.w3.org/2000/svg"
 width="600.000000pt" height="600.000000pt" viewBox="0 0 600.000000 600.000000"
 preserveAspectRatio="xMidYMid meet">
<g transform="translate(0.000000,600.000000) scale(0.100000,-0.100000)"
fill="#000000" stroke="none">
<path d="M2037 4879 c-419 -44 -800 -366 -947 -799 -79 -234 -81 -552 -3 -790
51 -156 150 -336 254 -460 42 -50 1608 -1617 1630 -1631 8 -5 27 -9 43 -9 26
0 128 99 817 793 433 437 807 818 832 848 324 400 399 961 186 1393 -219 443
-652 702 -1096 656 -258 -27 -473 -126 -664 -308 l-82 -78 -74 73 c-177 175
-415 287 -664 313 -111 11 -119 11 -232 -1z m355 -208 c199 -54 387 -182 510
-348 44 -61 63 -73 112 -73 39 0 43 4 155 136 75 89 170 162 286 219 137 68
224 88 385 89 158 1 239 -15 367 -74 107 -50 162 -88 256 -179 95 -91 155
-173 212 -289 75 -153 105 -284 105 -468 0 -280 -92 -527 -283 -759 -27 -33
-373 -385 -770 -783 l-720 -724 -719 719 c-396 395 -748 752 -782 793 -205
245 -288 463 -289 750 0 150 15 240 64 373 123 334 416 585 744 638 85 13 282
3 367 -20z"/>
</g>
</svg>
